# xmcd
#
# Track frame offsets: 
#        150
#        15477
#        28324
#        43771
#        64146
#        77354
#
# Disc length: 1246 seconds
#
# Revision: 0
# Processed by: cddbd v1.5.2PL0 Copyright (c) Steve Scherf et al.
# Submitted via: ExactAudioCopy v0.95b3
#
DISCID=4204dc06
DTITLE=Old 97's and Waylon Jennings - Old 97's
DYEAR=2014
DGENRE=Country
TTITLE0=Iron Road
TTITLE1=The Other Shoe 
TTITLE2=Old 97's Visiting Hours
TTITLE3=Fireflies
TTITLE4=London I Know
TTITLE5=Born On A Train
EXTD=
EXTT0=
EXTT1=
EXTT2=
EXTT3=
EXTT4=
EXTT5=
PLAYORDER=
